<?xml version="1.0" encoding="iso-8859-1"?>
<!-- Generator: Adobe Illustrator 19.0.0, SVG Export Plug-In . SVG Version: 6.00 Build 0)  -->
<svg version="1.1" id="Capa_1" xmlns="http://www.w3.org/2000/svg" xmlns:xlink="http://www.w3.org/1999/xlink" x="0px" y="0px"
	 viewBox="0 0 512 512" style="enable-background:new 0 0 512 512;" xml:space="preserve">
<path style="fill:#46AD70;" d="M400.925,512c-32.775,0.004-69.027-34.219-107.003-70.063
	c-44.494-41.997-94.935-89.612-142.018-83.441c-26.401,3.45-50.316,23.029-73.113,59.855c-2.282,3.687-7.122,4.826-10.809,2.544
	c-3.687-2.283-4.825-7.122-2.543-10.808c25.437-41.092,53.055-63.059,84.43-67.161c54.486-7.125,107.797,43.198,154.831,87.593
	c35.612,33.613,69.565,65.659,96.196,65.661c5.016,0,9.77-1.136,14.229-3.614c23.043-12.802,35.57-27.615,37.237-44.027
	c2.821-27.789-25.544-52.492-25.832-52.738c-3.29-2.824-3.667-7.782-0.843-11.071c2.825-3.29,7.782-3.666,11.071-0.843
	c1.425,1.224,34.865,30.38,31.225,66.237c-2.216,21.827-17.435,40.723-45.234,56.168C415.671,510.225,408.385,511.999,400.925,512z"
	/>
<circle style="fill:#98D4AD;" cx="167.936" cy="124.197" r="124.197"/>
<path style="fill:#46AD70;" d="M287.386,158.238c1.469-5.17,2.599-10.415,3.384-15.703h-36.4v-36.686h36.399
	c-0.785-5.288-1.916-10.532-3.384-15.703H254.37V53.461h15.671c-3.817-5.496-8.134-10.748-12.94-15.703h-2.732v-2.732
	c-4.955-4.806-10.207-9.123-15.703-12.94v15.672H201.98V4.743c-5.17-1.469-10.415-2.599-15.703-3.384v36.4h-36.685v-36.4
	c-5.288,0.785-10.532,1.916-15.703,3.384v33.015H98.373V21.294c-5.485,3.717-10.741,7.915-15.703,12.605v3.86h-3.902
	c-4.801,4.949-9.114,10.195-12.927,15.685c0.117,0.005,0.232,0.018,0.351,0.018H82.67v36.685H48.487
	c-1.469,5.17-2.599,10.415-3.384,15.703H82.67v36.686H45.102c0.785,5.288,1.916,10.532,3.384,15.703H82.67v36.686H65.831
	c3.817,5.496,8.134,10.748,12.94,15.703h3.901v3.86c4.962,4.69,10.217,8.889,15.703,12.605v-16.465h35.517v33.015
	c5.17,1.469,10.415,2.599,15.703,3.384v-36.4h36.685v36.4c5.288-0.785,10.532-1.916,15.703-3.384v-33.015h36.686v15.671
	c5.496-3.817,10.748-8.134,15.703-12.94v-2.732h2.732c4.806-4.955,9.123-10.207,12.94-15.703h-15.671v-36.686h33.014V158.238z
	 M133.891,194.924H98.373v-36.686h35.517v36.686H133.891z M133.891,142.535H98.373v-36.686h35.517v36.686H133.891z M133.891,90.146
	H98.373V53.461h35.517v36.685H133.891z M186.279,194.924h-36.685v-36.686h36.685L186.279,194.924L186.279,194.924z M186.279,142.535
	h-36.685v-36.686h36.685L186.279,142.535L186.279,142.535z M186.279,90.146h-36.685V53.461h36.685L186.279,90.146L186.279,90.146z
	 M238.668,194.924h-36.686v-36.686h36.686V194.924z M238.668,142.535h-36.686v-36.686h36.686V142.535z M238.668,90.146h-36.686
	V53.461h36.686V90.146z"/>
<path style="fill:#E2E3E4;" d="M291.149,141.262L453.524,338.96c7.445,8.997,6.824,22.18-1.433,30.438L413.9,407.588
	c-8.257,8.257-21.441,8.878-30.438,1.433L186.659,247.027"/>
<path style="opacity:0.1;fill:#332E2F;enable-background:new    ;" d="M447.761,331.997l-27.671,27.67
	c-8.257,8.257-21.441,8.878-30.438,1.433L215.156,217.411l-28.499,29.615l196.804,161.995c8.997,7.445,22.18,6.824,30.438-1.433
	l38.191-38.191c8.257-8.257,8.878-21.441,1.433-30.438L447.761,331.997z"/>
<g style="opacity:0.2;">
	<polygon points="291.149,141.262 186.659,247.027 243.277,293.631 338.154,198.588 	"/>
</g>
<path style="fill:#F23366;" d="M371.173,316.04l-11.39,11.39c-4.088,4.088-10.716,4.088-14.804,0l-25.859-25.859
	c-4.088-4.088-4.088-10.716,0-14.804l11.39-11.39c4.088-4.088,10.716-4.088,14.804,0l25.859,25.859
	C375.261,305.324,375.261,311.952,371.173,316.04z"/>
<g>
</g>
<g>
</g>
<g>
</g>
<g>
</g>
<g>
</g>
<g>
</g>
<g>
</g>
<g>
</g>
<g>
</g>
<g>
</g>
<g>
</g>
<g>
</g>
<g>
</g>
<g>
</g>
<g>
</g>
</svg>
